<?xml version="1.0" encoding="utf-8"?>
<svg viewBox="-395.829 63.343 674.228 646.771" width="674.228px" height="646.771px" xmlns="http://www.w3.org/2000/svg" xmlns:bx="https://boxy-svg.com"><defs><bx:export><bx:file format="svg"/></bx:export></defs><g transform="matrix(1, 0, 0, 1, -432.346015, 56.161)"><polyline points="476.854 626.327 476.974 625.647 480.044 589.757 493.114 589.757 483.784 626.327" fill="#bfbfbf"/><polyline points="476.854 626.327 476.974 625.647 480.044 589.757 493.114 589.757 483.784 626.327" opacity="0.2"/><polyline points="597.964 626.327 597.844 625.647 594.774 589.757 581.704 589.757 591.054 626.327" fill="#bfbfbf"/><polyline points="597.964 626.327 597.844 625.647 594.774 589.757 581.704 589.757 591.054 626.327" opacity="0.2"/><polyline points="459.624 626.327 459.734 625.647 465.684 589.757 478.754 589.757 466.544 626.327" fill="#bfbfbf"/><polyline points="615.194 626.327 615.084 625.647 609.134 589.757 596.064 589.757 608.284 626.327" fill="#bfbfbf"/><rect x="451.424" y="374.857" width="171.97" height="222.9" rx="5.72" fill="#bfbfbf"/><rect x="451.424" y="374.857" width="171.97" height="222.9" rx="5.72" fill="#fff" opacity="0.4" style="isolation:isolate"/><rect x="458.434" y="423.457" width="157.96" height="80.47" fill="#fff" opacity="0.5" style="isolation:isolate"/><rect x="458.434" y="509.287" width="157.96" height="80.47" fill="#fff" opacity="0.5" style="isolation:isolate"/><rect x="458.434" y="382.857" width="157.96" height="35.23" fill="#fff" opacity="0.5" style="isolation:isolate"/><path d="M 550.334 388.767 L 524.484 388.767 C 522.901 388.764 521.459 387.86 520.764 386.437 L 519.024 382.907 L 555.764 382.907 L 554.044 386.437 C 553.35 387.855 551.913 388.758 550.334 388.767 Z" fill="#bfbfbf"/><path d="M 550.334 429.297 L 524.484 429.297 C 522.903 429.307 521.457 428.409 520.764 426.987 L 519.024 423.457 L 555.764 423.457 L 554.044 426.987 C 553.352 428.404 551.911 429.301 550.334 429.297 Z" fill="#bfbfbf"/><path d="M 550.334 515.147 L 524.484 515.147 C 522.901 515.144 521.459 514.24 520.764 512.817 L 519.024 509.287 L 555.764 509.287 L 554.114 512.887 C 553.387 514.299 551.922 515.175 550.334 515.147 Z" fill="#bfbfbf"/><path d="M 655.334 578.557 C 655.334 578.037 653.584 526.767 645.334 518.667 C 637.264 510.827 627.984 518.377 627.594 518.667 L 626.674 517.557 C 626.774 517.477 637.334 508.857 646.324 517.557 C 655.074 526.067 656.784 576.307 656.834 578.447 L 655.334 578.557 Z" fill="#7a6640"/><path d="M 656.054 588.637 C 656.054 588.027 650.314 527.027 672.644 501.447 L 673.724 502.447 C 651.844 527.567 657.434 587.947 657.494 588.547 L 656.054 588.637 Z" fill="#7a6640"/><path d="M 655.364 582.187 L 653.934 582.087 C 653.934 581.397 658.244 512.807 641.934 497.797 L 642.934 496.797 C 659.764 512.157 655.554 579.337 655.364 582.187 Z" fill="#7a6640"/><path d="M 657.494 582.147 L 656.054 582.147 C 656.054 580.257 656.604 535.757 669.254 528.507 C 671.704 526.918 674.772 526.616 677.484 527.697 C 685.154 530.877 688.974 544.487 689.104 545.067 L 687.664 545.457 C 687.664 545.307 683.894 531.927 676.884 529.027 C 674.571 528.116 671.959 528.388 669.884 529.757 C 657.984 536.577 657.494 581.687 657.494 582.147 Z" fill="#7a6640"/><path d="M 652.584 582.177 L 651.144 582.107 C 651.144 581.747 653.044 546.987 643.674 534.707 C 641.404 531.707 638.954 530.397 636.384 530.527 C 630.264 530.957 625.124 539.927 625.064 540.027 L 623.814 539.307 C 624.044 538.917 629.384 529.587 636.284 529.097 C 639.384 528.897 642.284 530.527 644.814 533.837 C 654.504 546.527 652.654 580.767 652.584 582.177 Z" fill="#7a6640"/><path d="M 654.504 586.917 C 654.244 583.537 648.354 504.087 658.724 490.067 L 659.874 490.917 C 649.824 504.517 655.874 585.987 655.944 586.797 L 654.504 586.917 Z" fill="#7a6640"/><path d="M 680.274 535.767 C 680.274 535.767 674.064 538.057 675.964 543.457 C 677.864 548.857 697.434 557.847 697.434 557.847 C 697.434 557.847 705.664 550.307 698.114 538.057 C 690.564 525.807 680.434 531.927 680.274 535.767 Z" fill="#757575"/><path d="M 653.284 525.517 C 653.284 525.517 659.904 525.227 660.284 530.937 C 660.664 536.647 645.924 552.387 645.924 552.387 C 645.924 552.387 635.424 548.597 637.684 534.387 C 639.944 520.177 651.644 522.017 653.284 525.517 Z" fill="#757575"/><path d="M 647.694 498.247 C 647.694 498.247 652.104 497.767 651.694 495.087 C 651.284 492.407 634.564 485.487 624.694 496.667 C 624.694 496.667 631.034 507.547 640.194 507.667 C 649.354 507.787 647.694 498.247 647.694 498.247 Z" fill="#757575"/><path d="M 655.914 491.767 C 655.914 491.767 651.914 493.687 650.804 491.217 C 649.694 488.747 660.264 473.987 674.574 478.287 C 674.574 478.287 674.954 490.887 667.264 495.857 C 659.574 500.827 655.914 491.767 655.914 491.767 Z" fill="#757575"/><path d="M 635.004 533.617 C 635.004 533.617 638.004 531.167 634.754 529.967 C 631.504 528.767 615.364 529.107 615.194 545.067 C 615.194 545.067 633.954 548.177 636.284 542.067 C 638.614 535.957 635.004 533.617 635.004 533.617 Z" fill="#757575"/><path d="M 673.294 497.767 C 673.294 497.767 670.244 495.317 673.534 494.107 C 676.824 492.897 692.924 493.257 693.094 509.217 C 693.094 509.217 674.344 512.337 672.014 506.217 C 669.684 500.097 673.294 497.767 673.294 497.767 Z" fill="#757575"/><path d="M 663.434 510.767 C 663.434 510.767 663.154 507.767 665.574 508.937 C 667.994 510.107 676.374 519.177 667.664 527.767 C 667.664 527.767 655.944 519.157 658.074 514.567 C 660.204 509.977 663.434 510.767 663.434 510.767 Z" fill="#757575"/><path d="M 632.314 514.947 C 632.314 514.947 634.144 512.567 631.464 512.257 C 628.784 511.947 616.874 515.137 619.664 527.067 C 619.664 527.067 634.194 525.977 634.814 521.067 C 635.434 516.157 632.314 514.947 632.314 514.947 Z" fill="#757575"/><path d="M 680.274 535.767 C 680.274 535.767 674.064 538.057 675.964 543.457 C 677.864 548.857 697.434 557.847 697.434 557.847 C 697.434 557.847 705.664 550.307 698.114 538.057 C 690.564 525.807 680.434 531.927 680.274 535.767 Z" fill="#fff" opacity="0.2" style="isolation:isolate"/><path d="M 653.284 525.517 C 653.284 525.517 659.904 525.227 660.284 530.937 C 660.664 536.647 645.924 552.387 645.924 552.387 C 645.924 552.387 635.424 548.597 637.684 534.387 C 639.944 520.177 651.644 522.017 653.284 525.517 Z" fill="#fff" opacity="0.2" style="isolation:isolate"/><path d="M 647.694 498.247 C 647.694 498.247 652.104 497.767 651.694 495.087 C 651.284 492.407 634.564 485.487 624.694 496.667 C 624.694 496.667 631.034 507.547 640.194 507.667 C 649.354 507.787 647.694 498.247 647.694 498.247 Z" fill="#fff" opacity="0.2" style="isolation:isolate"/><path d="M 655.914 491.767 C 655.914 491.767 651.914 493.687 650.804 491.217 C 649.694 488.747 660.264 473.987 674.574 478.287 C 674.574 478.287 674.954 490.887 667.264 495.857 C 659.574 500.827 655.914 491.767 655.914 491.767 Z" fill="#fff" opacity="0.2" style="isolation:isolate"/><path d="M 635.004 533.617 C 635.004 533.617 638.004 531.167 634.754 529.967 C 631.504 528.767 615.364 529.107 615.194 545.067 C 615.194 545.067 633.954 548.177 636.284 542.067 C 638.614 535.957 635.004 533.617 635.004 533.617 Z" fill="#fff" opacity="0.2" style="isolation:isolate"/><path d="M 673.294 497.767 C 673.294 497.767 670.244 495.317 673.534 494.107 C 676.824 492.897 692.924 493.257 693.094 509.217 C 693.094 509.217 674.344 512.337 672.014 506.217 C 669.684 500.097 673.294 497.767 673.294 497.767 Z" fill="#fff" opacity="0.2" style="isolation:isolate"/><path d="M 663.434 510.767 C 663.434 510.767 663.154 507.767 665.574 508.937 C 667.994 510.107 676.374 519.177 667.664 527.767 C 667.664 527.767 655.944 519.157 658.074 514.567 C 660.204 509.977 663.434 510.767 663.434 510.767 Z" fill="#fff" opacity="0.2" style="isolation:isolate"/><path d="M 632.314 514.947 C 632.314 514.947 634.144 512.567 631.464 512.257 C 628.784 511.947 616.874 515.137 619.664 527.067 C 619.664 527.067 634.194 525.977 634.814 521.067 C 635.434 516.157 632.314 514.947 632.314 514.947 Z" fill="#fff" opacity="0.2" style="isolation:isolate"/><polygon points="681.434 626.367 631.554 626.367 626.174 571.747 686.824 571.747 681.434 626.367" fill="#a98c5d"/><polygon points="681.434 626.367 631.554 626.367 626.174 571.747 686.824 571.747 681.434 626.367" fill="#fff" opacity="0.5" style="isolation:isolate"/><rect x="623.514" y="565.717" width="65.98" height="12.05" fill="#a98c5d"/></g><g style="isolation:isolate" transform="matrix(1, 0, 0, 1, -432.345587, 56.160931)"><g id="aba9b30a-cac2-4b44-ad97-47becffe3cab" data-name="Layer 1"><rect x="49.65" y="16.47" width="234.2" height="387.66" fill="#e0e0e0"/><rect x="41.86" y="16.47" width="234.2" height="387.66" fill="#ebebeb"/><rect x="51.84" y="24.35" width="214.25" height="371.93" fill="#fafafa"/><rect x="92.62" y="72.66" width="131.75" height="275.28" fill="#ebebeb"/><path d="M92.62,250.54c-.3-25.71,22.82-50.82,48.28-54.41,12.14-1.77,25,.69,36.39-4C197.55,183.87,204,157,224.37,149l.92,199H92.6Z" fill="#e0e0e0"/><polygon points="423.69 603.97 428.2 600.85 389.44 501.53 372.97 510.56 381.32 512.56 423.69 603.97" fill="#7a6640"/><polygon points="423.69 603.97 379.68 492.12 372.97 510.56 372.97 515.32 377.95 515.32 417.29 603.97 423.69 603.97" fill="#a98c5d"/><path d="M57.92,237.1s3-19.52,32.14-11.11c0,0,57.08,18.62,92.53,11.11s98.19-7.45,100.93,1.79c0,0,6.28,17.53,6.62,30.58l3.09,74.33s1.26,25.95,3.16,35.44S330.88,384,330.88,384s47.47-11.2,52.85,7.85c0,0,2.9,19.67,1.29,31.86L329.93,479,145.14,468.16,89.44,318.8Z" fill="#7a6640"/><path d="M170.54,244.05l10.37-3.37,42.27.53,4.35.3s22.13-4.83,23.17,58.67c0,0-20.38,24.31-58.27,11.24C192.43,311.42,177.4,249.21,170.54,244.05Z" fill="#757575"/><path d="M373,510.56a21.39,21.39,0,0,0,8.35-4.12,8,8,0,0,0,5.09,0l4.49-50.62S365,465.94,365,467.51,373,510.56,373,510.56Z" fill="#7a6640"/><polygon points="290.65 522.37 298.92 549.27 304.4 540.29 300.26 522.99 290.65 522.37" fill="#7a6640"/><path d="M57.92,261s-8.77-31.64,10.22-26.58c0,0,24.47,1.27,39.66,70L115.39,358s5.91,46.35,13.5,42.79c0,0,7.17,1.09,4.22-30.13,0,0-6.33-97.89,7.17-107.59l31.23,131.07,119.14,41L336.18,447,302.79,523H266.6s-26.11-1.46-43.2-2.73c0,0-43.46-2.74-68.14-8.65,0,0-16.77,2.75-25.63-23.52Z" fill="#a98c5d"/><path d="M266.6,523s-15.36,0-23-17.49c0,0-6.69-16.2,3.82-15.59,0,0,32.27,1.71,45.46.32a2,2,0,0,1,2.24,2.1L293.94,523Z" fill="#7a6640"/><path d="M276.93,523s-15.32,7.21-22.15,12.82l1.09-13.44Z" fill="#a98c5d"/><path d="M297.66,520.05l26,14.84s3.89,2.6,17.4,4.94c0,0,4.41-.16,9.87,3.16,0,0,21.36,8.62,23.8,0l-3.28-7.06-49.09-23.37S299.72,517.16,297.66,520.05Z" fill="#bfbfbf"/><path d="M297.66,520.05l26,14.84s3.89,2.6,17.4,4.94c0,0,4.41-.16,9.87,3.16,0,0,21.36,8.62,23.8,0l-3.28-7.06-49.09-23.37S299.72,517.16,297.66,520.05Z" opacity="0.2"/><path d="M301,519.36s-2.64,14.89-6.07,23.64a12.09,12.09,0,0,1-7.1,6.92h0s-5.19,3.68-2.38,17.94l3,11.67s3-5.4,9.23-5.62c0,0,7.63-1.51,11.09,2,0,0,10.44-40.67,15.49-48C324.24,527.86,310.68,516.9,301,519.36Z" fill="#ffad95"/><path d="M307.36,632.7c2.11,7.14-3.53,9.54-6.23,10.27h0a9.87,9.87,0,0,1-1.35.28C273.19,643,277,579.53,277,579.53c-4.85-5.5-7.17-22.56-7.17-22.56a7,7,0,0,1,3.55-7.71h0c3.85-2.35,9.31-2.43,9.31-2.43,8-2.13,5.1,3.09,5.1,3.09-7.71,8.58.65,29.61.65,29.61,3.86-5.29,8.14-5.53,8.14-5.53,9.17-1.55,12.18,1.86,12.18,1.86,7.51,1.16-2,18.92-2,18.92C301.24,611.93,307.36,632.7,307.36,632.7Z" fill="#757575"/><path d="M301.12,643c-4.82,2.62-13.38,2.18-13.38,2.18-21.73-5.48-19.68-62.87-19.68-62.87a158.15,158.15,0,0,1-5.21-20.46c-1.25-12.46,10.17-12.56,10.51-12.56a7,7,0,0,0-3.55,7.71S272.13,574,277,579.53c0,0-3.79,63.51,22.79,63.72A9.87,9.87,0,0,0,301.12,643Z" fill="#123a53"/><path d="M281.65,358.21l9.06,18.91a18.57,18.57,0,0,0,15.11,10.48c10,.88,25.63,1.46,40.3-1.27,0,0,34.68-10.17,33.56,28.94L298.92,415l-27.47-36.52-3.14-29.3h0A16,16,0,0,1,281.65,358.21Z" fill="#a98c5d"/><path d="M238.81,240.68s11.63,23.57,21.82,67.36l8.24,31.2,14.66-33.71s-9.39-6.26-13.79-16.51C269.74,289,253.06,247,238.81,240.68Z" fill="#757575"/><path d="M157.48,248.24s20.64,12.25,22.52,47.38c0,0,8.16,38.81-7.82,61a52.15,52.15,0,0,0-9.25,21.09,100.13,100.13,0,0,0-.07,34.47s12,59.17,48.41,65.18c0,0,23.1,5.59,59.38-7.48a293.1,293.1,0,0,0,28.27-12.24,17.8,17.8,0,0,1,10.55-1.05S296.81,496,297.66,520.05c0,0,10.54-4.43,26.58,7.81a50,50,0,0,0,38.92,11.5s7.91-1.11,11.55,3.63a566.7,566.7,0,0,1-1.11-77.15l1.11-31.22s9.23-49.58-27.9-44.94c0,0-13.71,1.74-38.08,4.91l-22.5-10.95a11.31,11.31,0,0,1-5.67-6.26c-3.65-9.89-12.27-34.34-12.62-45.3,0,0-6-18.06-10.85-38.93,0,0-8.35-33.14-18.28-52.47a23.37,23.37,0,0,1-12.32,1.38S244.07,265,249.56,299c0,0-19.41,20.89-55.06,12.24a141.13,141.13,0,0,0-8.23-48.1s-5.48-13.25-14.76-19l-3.38-.54Z" fill="#bfbfbf"/><path d="M238.81,240.68s24-8.58,28.47-43.39c0,0,.41,29,6.42,40.11,0,0,21.59,35.32,11.93,69.06,0,0-7.83-2.11-15-15.44a17.28,17.28,0,0,1-.92-2C267.32,282.89,253.73,249.88,238.81,240.68Z" fill="#123a53"/><path d="M238.81,240.68s24-8.58,28.47-43.39c0,0,.41,29,6.42,40.11,0,0,21.59,35.32,11.93,69.06,0,0-7.83-2.11-15-15.44a17.28,17.28,0,0,1-.92-2C267.32,282.89,253.73,249.88,238.81,240.68Z" opacity="0.2"/><path d="M206.49,215.37s-.25,14.58-25.58,25.31c0,0,10,28.59,31.94,31.93a9.66,9.66,0,0,0,9.89-4.78c1.92-3.51,3-9.41.64-19.26a12.29,12.29,0,0,0-.92-2.5c-.63-1.27-1.36-3.58.72-4.86C223.18,241.21,211.52,237.12,206.49,215.37Z" fill="#e37961"/><ellipse cx="236.85" cy="202.03" rx="41.5" ry="28.94" transform="translate(-31.93 359.09) rotate(-70.76)" fill="#ffad95"/><path d="M292,290.32c.84-7.14-.69-15.83-1.82-20.85a46.37,46.37,0,0,0-2.13-6.91c-4.67-11.82-7.12-20-7.12-20-2.85-14.24-3.8-32-3.8-32,.63-19.62-2.85-33.22-2.85-33.22-12.66-48.1-48.1-35.44-48.1-35.44-34.17,5.06-38,57.59-38,57.59-2.85,34.17-25.31,46.2-25.31,46.2s40-6,43.63-30.34c0,0-2.19-25.8,15.85-27.32,0,0,27.17,9.24,44.26-3.74,0,0-1.85,37,6.06,53.49,0,0,19,44,13,68.66Z" fill="#123a53"/><path d="M190.07,246.34s10.61-1.2,12.74-5.66a19.51,19.51,0,0,0,10.8,3.46s.16,14.36,1.85,19.83a1.19,1.19,0,0,1-1.09,1.55C210.61,265.6,200.92,263.84,190.07,246.34Z" fill="#ffad95"/><path d="M179,282s5.36,9.16,9.58,30.25c0,0,.85,5.28,7.39,12.66l7.8,9.91,1.27,12.66-13.93-16.24.91,57s39.18-23.84,52.15-39.66c0,0,18.06-5,24.69-9.31l2.05,8.63s-18.31,9.21-26.42,8.9c0,0-35.2,35-65.49,46.41,0,0-3.68,35.87,26.68,48.52l-5.07,15.61,8.44-10.54s6.82,19.48,32.52,20.5c0,0-40.06,10.47-59.08-19.57,0,0-27.4-36.56-20-77.18,0,0,.06-9.87,9.72-23.93C172.18,356.59,189.47,339.51,179,282Z" fill="#fff" opacity="0.2"/><path d="M271.45,349.79s-5.44,39-37.29,32.92l18.64,13.73s46.5,2.61,55.93-1.85l-22.3-10.85a11.32,11.32,0,0,1-5.78-6.57Z" fill="#fff" opacity="0.2"/><path d="M202.79,395.89l8.59,4.94s26.1-5.49,33.76-4.94A129,129,0,0,0,202.79,395.89Z" fill="#fff" opacity="0.2"/><path d="M189.69,415.66l15.1,1.92s7.7-10.64,16.2-15.37C221,402.21,196.55,409.62,189.69,415.66Z" fill="#fff" opacity="0.2"/><path d="M298.92,457.61s3.82-2.45,10.55-1.05c0,0,7.61-33.37,25.77-43.78,0,0-24.14,10.61-26.44,34.41a1,1,0,0,1-.86.89h0a1,1,0,0,1-1.09-.94,41.92,41.92,0,0,1,6.25-22.4S302.46,431.58,298.92,457.61Z" fill="#fff" opacity="0.2"/><path d="M352.54,537.78,369,535.23s-8.16-59.78-1.42-93.18C367.55,442.05,351.41,488.21,352.54,537.78Z" fill="#fff" opacity="0.2"/><path d="M375.37,415s20.38-2.2,37.47,29.76c0,0,35.44,62.66,57.27,84.81,0,0-25.31,31.64-77.84,31.32L384.67,497s-2.63-1.74-1.37-7a9.88,9.88,0,0,1-4.94-9.41,5.52,5.52,0,0,0-3.33-5.7,5.09,5.09,0,0,0-1.83-.35l1.51-39.83S376.34,420.9,375.37,415Z" fill="#bfbfbf"/><path d="M378.32,479.11s.76-9.48,4.35-15.8a30,30,0,0,0,0-17.72s-4-19.26,6.77-26.82c0,0-7.25-4-14.07-3.79,0,0,1,11.2-.59,19l-1.58,40.46S377,474.11,378.32,479.11Z" opacity="0.2"/><path d="M379.68,486.36a37.78,37.78,0,0,1,11.22-23.15s-9,19.66-7.6,26.7A8.46,8.46,0,0,1,379.68,486.36Z" opacity="0.2"/><path d="M386.41,511.59l19,44.34s-9.95-45.85-9.52-76.82c0,0,17.17,61.95,27.76,77.82,0,0-16.81,4.47-31.42,3.94Z" opacity="0.2"/><path d="M432.79,554s17.59,21.11,18.89,33.83c0,0,1,9.35,4.67,9.61,0,0,18.18.78,22.08-2.33,0,0-9.87-2.34-4.94-8.06a16.45,16.45,0,0,1,8.31-7s-9.13-4.76-17.66-21.29L454.53,543S443.42,550.77,432.79,554Z" fill="#ffad95"/><path d="M542.89,602.16V604a4.24,4.24,0,0,1-2.83,4c-6.57,2.29-23.78,7.42-43.21,6a31.13,31.13,0,0,0-13.61,3.64s-16.09,5.69-28.79,4.59a4.29,4.29,0,0,1-3.69-2.84A15,15,0,0,1,453,605s-9.53-9.39.82-9.62a2.76,2.76,0,0,0,2.56,2.09s18.44,1.3,22.07-2.34c0,0-10-2.68-4.93-8,0,0,3.9-6,8.31-7,0,0,4.94-3.37,12.47,3.9,0,0,6.69,7.59,23.14,7.11C517.41,591.09,541.15,588.08,542.89,602.16Z" fill="#757575"/><path d="M544.37,610.87a6.42,6.42,0,0,1-2.73,3.56c-13.85,8.88-47.17,8-47.17,8-17.76,8.54-37.18,7.14-37.18,7.14-6.48.63-6.53-10.12-6.53-10.12a4.29,4.29,0,0,0,3.69,2.84c12.7,1.1,28.79-4.59,28.79-4.59A31.13,31.13,0,0,1,496.85,614c19.43,1.37,36.64-3.76,43.21-6a4.24,4.24,0,0,0,2.83-4C544.87,606.78,544.87,609.17,544.37,610.87Z" fill="#123a53"/><path d="M122.39,407.16s30-1.45,38.38,15.18a14.6,14.6,0,0,1,.73,1.79c2.21,6.38,16.79,45.81,41.29,53.18,0,0-15-13.59-25.52-38l-8.19-17.18c-.68-1.41-1.29-2.85-1.88-4.3C165.11,412.75,155.54,396.08,122.39,407.16Z" fill="#7a6640"/><polygon points="162.59 512.56 145.61 585.82 150.5 588.83 175.41 515.32 162.59 512.56" fill="#7a6640"/><path d="M150.5,588.83h5.27l24.46-59.14s26.71-11.6,51.17,4.58l4.52,109,5.58,1.93,2.31-123.55-68.4-6.31Z" fill="#a98c5d"/><path d="M180.23,529.69H172.7S184.76,522.57,196,526C196,526,186.25,527.37,180.23,529.69Z" fill="#7a6640"/><polygon points="241.5 645.18 246.08 643.25 255.87 522.37 243.81 521.63 241.5 645.18" fill="#7a6640"/><path d="M308.06,315.76l3.53-1,.61,4.89a5,5,0,0,1,.11,2.78,5.17,5.17,0,0,1-2.26,3c-2.12-.34-5-.45-7.15-.79Z" fill="#e37961"/><path d="M318.6,296.35,293.86,341.9l-25-2.66,21.87-50.31a4.65,4.65,0,0,1,5.06-2.73l19.5,3.34A4.66,4.66,0,0,1,318.6,296.35Z" fill="#bfbfbf"/><path d="M319.14,295.37s-22.62,22.52-40.41,21.19l-9.86,22.68,25,2.66Z" opacity="0.2"/><ellipse cx="205.48" cy="191.68" rx="8.13" ry="12.36" fill="#ffad95"/><path d="M266.6,184.31s-12.94,11.57-39.49,4.24a13.7,13.7,0,0,0-9.19.57c-6,2.65-13.41,10.48-10.2,33.35,0,0-6.21-21.8,3.1-40.1,0,0,11.84-24,32.73-28.74C243.55,153.63,265,150.14,266.6,184.31Z" fill="#123a53"/><path d="M147.66,365.31s-15-1.43-12.14-18.22A113.6,113.6,0,0,0,137,312.8s-12.07-62.66,20.53-64.56c0,0,23,12.22,23.43,33.77,0,0,.19,35.93,5.34,51,0,0,6.77,15.72-9.89,22.26v5.9s-9.28-1.26-26,8.65l-.21-4.64Z" fill="#757575"/><path d="M150.2,365.21s9.28-5.06,14.34-11.6c0,0,8.65-11.18,20.89-10.13l-11,10.09,2,1.73v5.9s-12.24-.42-26,8.65Z" fill="#fff" opacity="0.2"/><path d="M152.37,368.62s-.21,21.38,8.15,29.64a7.75,7.75,0,0,0,7.47,1.92c4.21-1.13,12.33-4.22,25.15-12.66,0,0,39.16-24.1,51-39,0,0,30.77-7.9,30.53-15.51,0,0,3.64.15,3.64-2.28,0,0-2.07-5.9-15.19-1.16-.13,0-.25-.12-.15-.22,1.19-1.2,5-4.59,10-4.19,0,0,8.41.27,12.54-1.05a1.82,1.82,0,0,0,.31-3.32c-2.74-1.57-8.64-3.48-19.27-.72l-8.85,1.7s-1.2-4.37,8.85-4.85L273,315.5s12.79,0,13.42-3.15c0,0,2.32-4.61-17.69-2.14a19.19,19.19,0,0,1-5.51-.08c-4.19-.71-13.18-.93-18.09,8.52l-6.34,15.26s-28.93,19-48.68,24.56a67.53,67.53,0,0,0-6.77,2.32l-6.54,2.58-.46-2.17S165.25,360.67,152.37,368.62Z" fill="#ffad95"/><path d="M274.71,333s-2.66-4.22-10.42,1.11" fill="none" stroke="#e37961" stroke-miterlimit="10"/><path d="M220.72,369s17.64-17.84,19.58-23.9c0,0,15.9-1.55,26.44-4.53a105.23,105.23,0,0,1-22.56,8S238.46,356.27,220.72,369Z" fill="#e37961"/><path d="M290.38,327.35s-3-.64-1.9-2.85c0,0,.78-2.83,15,0a1.87,1.87,0,0,0,.34,0h4.4a4.21,4.21,0,0,1,3.21,1.43,4.66,4.66,0,0,1,.85,5.32,1.77,1.77,0,0,1-.26.39,9.47,9.47,0,0,1-2.52,2,1.76,1.76,0,0,0-.93,2.08c.45,1.45.73,3.59-.74,5.05a1.76,1.76,0,0,0-.45,1.65,2.68,2.68,0,0,1-1.92,3.5,1.43,1.43,0,0,1-.46.07c-1.83,0-13.93-.12-15.66-3.44a1.5,1.5,0,0,1-.15-.56,2.55,2.55,0,0,1,.21-1.24,1.69,1.69,0,0,0-1.19-2.43c-2.84-.48-6.06-1.36-7-2.93a1.68,1.68,0,0,1,.56-2.17c1.08-.76,3.59-1.58,9.29-.46l.11,0c.62.07,6.77.71,10.92.66a1.74,1.74,0,0,0,.67-3.33C300.6,329.21,296.83,328.18,290.38,327.35Z" fill="#ffad95"/><line x1="293.86" y1="339.37" x2="305.57" y2="340.53" fill="none" stroke="#e37961" stroke-miterlimit="10"/><rect x="356.938" y="16.589" width="255.736" height="334.185" rx="4.66" fill="#757575" opacity="0.19" style=""/><rect x="358.725" y="37.974" width="253.948" height="0.863" fill="#757575" style=""/><rect x="378.24" y="49.514" width="216.899" height="89.934" rx="3.85" fill="#757575" opacity="0.36" style=""/><rect x="386.957" y="56.729" width="81.02" height="74.94" rx="7.1" fill="#fff" style=""/><rect x="483.358" y="64.747" width="86.144" height="1.727" fill="#a98c5d" style=""/><rect x="483.358" y="78.629" width="86.144" height="1.727" fill="#a98c5d" style=""/><rect x="483.358" y="92.502" width="59.993" height="1.727" fill="#a98c5d" style=""/><path d="M 574.869 121.398 C 574.451 122.19 573.855 122.856 573.137 123.333 C 572.303 123.88 571.36 124.2 570.387 124.266 L 570.387 126.38 L 568.82 126.38 L 568.82 124.266 C 567.479 124.182 566.196 123.644 565.153 122.728 C 564.225 121.873 563.712 120.603 563.76 119.285 L 566.693 119.285 C 566.716 119.904 566.929 120.497 567.298 120.972 C 567.692 121.44 568.229 121.74 568.811 121.815 L 568.811 116.109 C 567.92 115.874 567.043 115.575 566.189 115.216 C 565.51 114.9 564.917 114.401 564.466 113.767 C 563.961 112.973 563.712 112.021 563.76 111.058 C 563.723 109.699 564.231 108.389 565.153 107.466 C 566.168 106.484 567.46 105.899 568.82 105.809 L 568.82 103.705 L 570.387 103.705 L 570.387 105.809 C 571.638 105.88 572.835 106.388 573.797 107.258 C 574.682 108.137 575.207 109.362 575.254 110.661 L 572.312 110.661 C 572.266 110.125 572.064 109.616 571.735 109.213 C 571.383 108.773 570.911 108.467 570.387 108.339 L 570.387 113.976 C 571.284 114.191 572.164 114.483 573.018 114.849 C 573.69 115.16 574.276 115.652 574.723 116.278 C 575.225 117.069 575.471 118.018 575.419 118.977 C 575.43 119.821 575.24 120.655 574.869 121.398 Z M 567.188 112.537 C 567.668 112.999 568.238 113.339 568.856 113.529 L 568.856 108.26 C 568.235 108.315 567.651 108.602 567.207 109.074 C 566.783 109.569 566.562 110.227 566.592 110.9 C 566.568 111.512 566.784 112.107 567.188 112.537 Z M 572.092 120.892 C 572.487 120.397 572.7 119.761 572.688 119.106 C 572.722 118.497 572.507 117.902 572.101 117.479 C 571.616 117.018 571.044 116.679 570.424 116.486 L 570.424 121.775 C 571.059 121.704 571.65 121.391 572.092 120.892 Z" fill="#a98c5d" style=""/><rect x="379.148" y="149.431" width="216.899" height="89.934" rx="3.85" fill="#757575" opacity="0.36" style=""/><rect x="387.865" y="156.646" width="81.02" height="74.94" rx="7.1" fill="#fff" style=""/><rect x="484.265" y="164.674" width="86.144" height="1.727" fill="#7a6640" style=""/><rect x="484.265" y="178.546" width="86.144" height="1.727" fill="#7a6640" style=""/><rect x="484.265" y="192.429" width="59.993" height="1.727" fill="#7a6640" style=""/><path d="M 575.777 221.296 C 575.36 222.086 574.763 222.749 574.045 223.221 C 573.21 223.768 572.267 224.092 571.295 224.163 L 571.295 226.277 L 569.764 226.277 L 569.764 224.163 C 568.423 224.079 567.141 223.541 566.097 222.625 C 565.17 221.769 564.657 220.5 564.704 219.182 L 567.637 219.182 C 567.66 219.798 567.873 220.389 568.242 220.859 C 568.636 221.329 569.173 221.632 569.755 221.712 L 569.755 215.977 C 568.862 215.743 567.986 215.441 567.133 215.074 C 566.45 214.764 565.856 214.264 565.41 213.625 C 564.899 212.834 564.649 211.879 564.704 210.916 C 564.667 209.559 565.175 208.252 566.097 207.334 C 567.11 206.347 568.403 205.763 569.764 205.676 L 569.764 203.563 L 571.331 203.563 L 571.331 205.676 C 572.583 205.743 573.781 206.252 574.741 207.125 C 575.628 208.003 576.153 209.229 576.199 210.529 L 573.256 210.529 C 573.212 209.991 573.01 209.483 572.679 209.08 C 572.324 208.644 571.853 208.34 571.331 208.207 L 571.331 213.833 C 572.224 214.053 573.1 214.344 573.953 214.707 C 574.631 215.014 575.222 215.51 575.667 216.145 C 576.172 216.935 576.418 217.886 576.364 218.845 C 576.366 219.703 576.165 220.547 575.777 221.296 Z M 568.096 212.424 C 568.574 212.889 569.145 213.228 569.764 213.417 L 569.764 208.147 C 569.145 208.206 568.564 208.49 568.114 208.951 C 567.692 209.447 567.471 210.104 567.5 210.777 C 567.464 211.403 567.681 212.015 568.096 212.454 L 568.096 212.424 Z M 572.99 220.79 C 573.394 220.294 573.609 219.653 573.595 218.993 C 573.627 218.384 573.413 217.791 573.009 217.366 C 572.521 216.909 571.949 216.57 571.331 216.374 L 571.331 221.673 C 571.958 221.602 572.544 221.302 572.99 220.819 L 572.99 220.79 Z" fill="#7a6640" style=""/><rect x="379.148" y="247.701" width="216.899" height="89.934" rx="3.85" fill="#757575" opacity="0.36" style=""/><rect x="387.865" y="254.916" width="81.02" height="74.94" rx="7.1" fill="#fff" style=""/><rect x="484.265" y="262.934" width="86.144" height="1.727" fill="#7a6640" style=""/><rect x="484.265" y="276.816" width="86.144" height="1.727" fill="#7a6640" style=""/><rect x="484.265" y="290.699" width="59.993" height="1.727" fill="#7a6640" style=""/><path d="M 575.777 319.595 C 575.36 320.386 574.763 321.049 574.045 321.52 C 573.21 322.068 572.267 322.392 571.295 322.463 L 571.295 324.577 L 569.764 324.577 L 569.764 322.513 C 568.423 322.428 567.141 321.89 566.097 320.975 C 565.17 320.118 564.657 318.849 564.704 317.531 L 567.637 317.531 C 567.66 318.147 567.873 318.738 568.242 319.208 C 568.636 319.679 569.173 319.981 569.755 320.062 L 569.755 314.276 C 568.862 314.042 567.986 313.741 567.133 313.373 C 566.45 313.064 565.856 312.564 565.41 311.925 C 564.899 311.134 564.649 310.179 564.704 309.216 C 564.667 307.859 565.175 306.552 566.097 305.633 C 567.11 304.647 568.403 304.062 569.764 303.976 L 569.764 301.862 L 571.331 301.862 L 571.331 303.976 C 572.583 304.043 573.781 304.552 574.741 305.425 C 575.626 306.3 576.15 307.523 576.199 308.819 L 573.256 308.819 C 573.21 308.285 573.008 307.781 572.679 307.38 C 572.326 306.941 571.855 306.635 571.331 306.506 L 571.331 312.133 C 572.224 312.352 573.1 312.644 573.953 313.006 C 574.631 313.314 575.222 313.81 575.667 314.445 C 576.172 315.235 576.418 316.186 576.364 317.144 C 576.366 318.003 576.165 318.847 575.777 319.595 Z M 568.096 310.724 C 568.574 311.188 569.145 311.528 569.764 311.716 L 569.764 306.447 C 569.145 306.505 568.564 306.789 568.114 307.251 C 567.692 307.747 567.471 308.404 567.5 309.077 C 567.472 309.693 567.689 310.292 568.096 310.724 Z M 572.99 319.079 C 573.394 318.588 573.61 317.95 573.595 317.293 C 573.627 316.684 573.413 316.09 573.009 315.666 C 572.521 315.208 571.949 314.87 571.331 314.673 L 571.331 319.972 C 571.964 319.896 572.552 319.58 572.99 319.079 Z" fill="#7a6640" style=""/><path d="M 413.062 113.053 C 412.792 113.053 412.523 113.033 412.256 112.993 L 412.256 116.903 L 414.841 116.903 L 414.841 113.053 L 413.062 113.053 Z" fill="#a98c5d" style=""/><path d="M 440.433 113.132 L 440.359 113.132 L 440.359 116.982 L 442.944 116.982 L 442.944 113.102 C 442.662 113.151 442.377 113.174 442.092 113.172 L 440.433 113.132 Z" fill="#a98c5d" style=""/><path d="M 414.593 89.495 C 414.593 89.664 414.593 89.842 414.593 90.011 L 414.593 103.656 L 440.488 103.656 L 440.488 90.835 C 440.45 90.525 440.432 90.214 440.433 89.902 C 440.432 87.033 442.011 84.441 444.447 83.313 C 444.336 76.709 439.346 71.427 433.246 71.455 L 421.724 71.455 C 415.796 71.456 410.904 76.478 410.588 82.886 C 413.024 84.022 414.6 86.622 414.593 89.495 Z M 415.336 97.801 L 439.635 97.801 L 439.635 102.762 L 415.299 102.762 L 415.336 97.801 Z" fill="#a98c5d" style=""/><path d="M 453.623 89.495 C 453.302 83.983 447.59 80.913 443.341 83.97 C 441.247 85.476 440.121 88.135 440.433 90.835 L 440.433 103.656 L 414.538 103.656 L 414.538 90.011 C 414.538 89.842 414.538 89.664 414.538 89.495 C 414.536 86.646 412.979 84.068 410.569 82.926 C 409.588 82.454 408.514 82.252 407.444 82.34 C 402.359 82.693 399.534 88.872 402.358 93.461 C 403.425 95.197 405.138 96.343 407.049 96.6 L 407.049 106.523 C 407.049 109.77 409.266 112.517 412.237 112.954 C 412.504 112.993 412.774 113.013 413.044 113.013 L 440.414 113.013 L 442.092 113.013 C 442.377 113.015 442.662 112.992 442.944 112.944 C 445.787 112.486 447.893 109.844 447.894 106.732 L 447.894 96.928 C 451.292 96.428 453.777 93.204 453.623 89.495 Z" fill="#7a6640" style=""/><rect x="415.299" y="97.801" width="24.299" height="4.952" fill="#7a6640" style=""/><rect x="403.117" y="167.164" width="50.515" height="52.95" fill="#a98c5d" style=""/><rect x="405.427" y="169.655" width="22.2" height="14.21" fill="#e6e7e8" style="mix-blend-mode: multiply;"/><rect x="429.598" y="169.655" width="22.2" height="14.21" fill="#e6e7e8" style="mix-blend-mode: multiply;"/><rect x="405.427" y="186.594" width="22.2" height="14.21" fill="#e6e7e8" style="mix-blend-mode: multiply;"/><rect x="429.598" y="186.594" width="22.2" height="14.21" fill="#e6e7e8" style="mix-blend-mode: multiply;"/><rect x="405.427" y="203.533" width="22.2" height="14.21" fill="#e6e7e8" style="mix-blend-mode: multiply;"/><rect x="429.598" y="203.533" width="22.2" height="14.21" fill="#e6e7e8" style="mix-blend-mode: multiply;"/><rect x="405.253" y="169.476" width="22.2" height="14.21" fill="#7a6640" style=""/><rect x="429.424" y="169.476" width="22.2" height="14.21" fill="#7a6640" style=""/><rect x="405.253" y="186.415" width="22.2" height="14.21" fill="#7a6640" style=""/><rect x="429.424" y="186.415" width="22.2" height="14.21" fill="#7a6640" style=""/><rect x="405.253" y="203.344" width="22.2" height="14.21" fill="#7a6640" style=""/><rect x="429.424" y="203.344" width="22.2" height="14.21" fill="#7a6640" style=""/><rect x="392.885" y="186.875" width="5.481" height="3.364" fill="#6d6e71" stroke="#f1f2f2" stroke-miterlimit="10" stroke-width="4" style="" transform="matrix(1, 0, 0, 1, 20.736462, -11.642428)"/><rect x="417.047" y="186.875" width="5.481" height="3.364" fill="#6d6e71" stroke="#f1f2f2" stroke-miterlimit="10" stroke-width="4" style="" transform="matrix(1, 0, 0, 1, 20.736462, -11.642428)"/><rect x="413.621" y="192.171" width="5.481" height="3.364" fill="#6d6e71" stroke="#f1f2f2" stroke-miterlimit="10" stroke-width="4" style=""/><rect x="417.046" y="203.814" width="5.481" height="3.364" fill="#6d6e71" stroke="#f1f2f2" stroke-miterlimit="10" stroke-width="4" style="" transform="matrix(1, 0, 0, 1, 20.736462, -11.642428)"/><rect x="413.621" y="209.1" width="5.481" height="3.364" fill="#6d6e71" stroke="#f1f2f2" stroke-miterlimit="10" stroke-width="4" style=""/><rect x="437.783" y="209.1" width="5.481" height="3.364" fill="#6d6e71" stroke="#f1f2f2" stroke-miterlimit="10" stroke-width="4" style=""/><rect x="405.253" y="220.115" width="46.372" height="0.963" fill="#a9c476" style=""/><rect x="405.253" y="220.115" width="46.372" height="0.963" fill="#7a6640" style=""/><path d="M 423.063 277.799 L 426.243 316.737 C 426.966 316.598 427.699 316.532 428.434 316.539 C 429.128 316.532 429.821 316.591 430.506 316.718 L 433.686 277.799 L 423.063 277.799 Z" fill="#a98c5d" style=""/><polygon points="430.524 269.195 430.524 265.593 441.707 265.593 439.406 263.152 428.37 263.152 417.343 263.152 415.042 265.593 426.216 265.593 426.216 269.195 413.273 269.195 408.47 277.799 423.063 277.799 428.37 277.799 433.686 277.799 448.279 277.799 443.467 269.195 430.524 269.195" fill="#7a6640" style=""/><path d="M 426.243 316.737 C 421.422 317.67 421.312 321.63 421.312 321.63 L 435.428 321.63 C 435.428 321.63 435.428 317.601 430.506 316.718 C 429.821 316.591 429.128 316.532 428.434 316.539 C 427.699 316.532 426.966 316.598 426.243 316.737 Z" fill="#7a6640" style=""/></g></g></svg>